<?xml version="1.0" encoding="UTF-8" standalone="no"?>
<!DOCTYPE svg PUBLIC "-//W3C//DTD SVG 1.1//EN" "http://www.w3.org/Graphics/SVG/1.1/DTD/svg11.dtd">
<svg viewBox="0 0 1082 310" height="310.0pt" width="1082.0pt" xmlns="http://www.w3.org/2000/svg" version="1.1">
<path d="M 0.00 0.00 L 147.29 0.00 C 123.18 1.34 99.56 7.63 78.58 19.73 C 55.01 33.34 34.29 52.97 20.59 76.58 C 7.51 99.03 1.39 124.24 0.00 150.05 L 0.00 0.00 Z" fill="#ffffff" />
<path d="M 147.29 0.00 L 162.01 0.00 L 162.74 0.16 C 172.09 2.52 179.19 12.35 178.27 22.01 C 177.69 32.51 168.54 41.05 158.00 40.94 C 138.87 40.27 119.70 44.64 102.76 53.55 C 88.20 61.30 75.20 72.07 64.89 84.94 C 52.05 101.06 44.56 120.63 42.11 141.02 C 39.28 162.88 42.77 185.32 52.96 204.93 C 62.61 223.44 76.99 240.09 94.71 251.28 C 113.69 263.36 136.62 268.86 159.00 268.25 C 173.62 268.04 188.24 264.53 201.48 258.36 C 227.72 245.87 249.64 224.54 260.31 197.23 C 263.08 190.78 264.26 183.86 266.79 177.36 C 256.47 170.02 247.80 159.76 243.01 147.98 C 238.08 135.31 236.91 121.27 240.04 108.01 C 243.37 92.19 253.69 77.98 266.87 68.84 C 285.43 55.73 311.08 54.02 331.62 63.40 C 346.86 70.63 359.47 83.74 365.45 99.58 C 368.43 107.74 369.74 116.33 369.75 125.00 C 369.76 140.33 369.75 155.68 369.76 171.02 C 369.66 175.83 368.47 180.48 364.94 183.93 C 359.35 189.73 349.86 190.32 343.42 185.58 C 340.97 183.99 339.61 181.67 338.15 179.23 C 328.34 185.17 317.31 188.39 305.85 188.80 C 299.71 215.87 286.60 241.23 267.27 261.25 C 246.20 282.93 218.75 299.54 189.09 306.08 C 164.92 311.45 139.11 310.35 115.14 304.40 C 98.58 300.22 82.56 293.23 68.45 283.56 C 54.66 274.22 42.75 262.60 32.57 249.45 C 16.76 229.17 5.71 205.51 1.81 180.01 C 0.83 174.26 0.50 168.48 0.00 162.68 L 0.00 150.05 C 1.39 124.24 7.51 99.03 20.59 76.58 C 34.29 52.97 55.01 33.34 78.58 19.73 C 99.56 7.63 123.18 1.34 147.29 0.00 Z" fill="#333333" />
<path d="M 162.01 0.00 L 1082.00 0.00 L 1082.00 310.00 L 0.00 310.00 L 0.00 162.68 C 0.50 168.48 0.83 174.26 1.81 180.01 C 5.71 205.51 16.76 229.17 32.57 249.45 C 42.75 262.60 54.66 274.22 68.45 283.56 C 82.56 293.23 98.58 300.22 115.14 304.40 C 139.11 310.35 164.92 311.45 189.09 306.08 C 218.75 299.54 246.20 282.93 267.27 261.25 C 286.60 241.23 299.71 215.87 305.85 188.80 C 317.31 188.39 328.34 185.17 338.15 179.23 C 339.61 181.67 340.97 183.99 343.42 185.58 C 349.86 190.32 359.35 189.73 364.94 183.93 C 368.47 180.48 369.66 175.83 369.76 171.02 C 369.75 155.68 369.76 140.33 369.75 125.00 C 369.74 116.33 368.43 107.74 365.45 99.58 C 359.47 83.74 346.86 70.63 331.62 63.40 C 311.08 54.02 285.43 55.73 266.87 68.84 C 253.69 77.98 243.37 92.19 240.04 108.01 C 236.91 121.27 238.08 135.31 243.01 147.98 C 247.80 159.76 256.47 170.02 266.79 177.36 C 264.26 183.86 263.08 190.78 260.31 197.23 C 249.64 224.54 227.72 245.87 201.48 258.36 C 188.24 264.53 173.62 268.04 159.00 268.25 C 136.62 268.86 113.69 263.36 94.71 251.28 C 76.99 240.09 62.61 223.44 52.96 204.93 C 42.77 185.32 39.28 162.88 42.11 141.02 C 44.56 120.63 52.05 101.06 64.89 84.94 C 75.20 72.07 88.20 61.30 102.76 53.55 C 119.70 44.64 138.87 40.27 158.00 40.94 C 168.54 41.05 177.69 32.51 178.27 22.01 C 179.19 12.35 172.09 2.52 162.74 0.16 L 162.01 0.00 Z" fill="#ffffff" />
<path d="M 404.60 11.42 C 407.04 14.41 408.27 18.15 408.27 22.00 C 408.21 66.59 408.33 111.20 408.20 155.80 C 412.48 156.19 416.45 157.31 419.57 160.43 C 425.86 166.05 426.50 176.58 420.91 182.91 C 417.90 186.49 413.73 188.61 409.02 188.72 C 403.34 188.81 397.66 188.74 391.98 188.76 C 387.02 188.70 382.29 186.78 379.20 182.81 C 376.33 179.11 375.44 174.61 375.47 170.01 C 375.52 123.34 375.48 76.67 375.49 30.00 C 375.54 25.07 375.09 20.59 376.75 15.83 C 378.23 12.20 380.78 9.06 384.39 7.39 C 391.06 3.94 399.84 5.56 404.60 11.42 Z" fill="#333333" />
<path d="M 593.81 9.20 C 597.81 12.27 599.68 17.03 599.76 21.98 C 599.79 36.67 599.69 51.37 599.80 66.06 C 617.45 55.88 639.63 54.77 658.38 62.60 C 669.88 67.57 679.73 75.81 686.96 86.01 C 702.35 108.01 702.05 140.34 685.80 161.81 C 676.54 174.39 662.50 183.99 647.13 187.18 C 634.10 190.17 620.34 188.97 607.89 184.17 C 597.45 179.90 588.10 172.79 581.09 163.96 C 572.31 153.31 567.51 139.75 567.01 126.00 C 566.99 93.00 567.01 60.00 567.00 27.00 C 567.01 23.62 566.73 20.11 567.73 16.84 C 568.73 13.27 571.10 10.20 574.20 8.18 C 580.29 4.42 588.14 4.81 593.81 9.20 Z" fill="#333333" />
<path d="M 984.22 8.76 C 988.89 12.04 990.94 17.43 991.00 23.00 C 991.01 36.79 990.99 50.60 991.01 64.40 C 1003.48 58.24 1018.37 55.97 1031.99 59.04 C 1048.34 62.38 1063.16 72.86 1071.94 87.03 C 1078.34 97.02 1081.44 109.18 1081.27 121.00 C 1081.22 137.98 1081.29 155.04 1081.24 172.01 C 1081.03 177.82 1078.52 183.39 1073.33 186.34 C 1066.76 190.39 1057.72 189.27 1052.59 183.42 C 1049.07 179.70 1048.28 174.94 1048.24 170.00 C 1048.24 152.35 1048.26 134.64 1048.23 116.99 C 1047.49 102.46 1033.57 89.84 1019.00 90.51 C 1004.04 90.55 990.74 104.04 990.99 119.00 C 991.01 134.66 991.00 150.33 991.00 166.00 C 990.99 169.85 991.30 173.37 990.20 177.14 C 989.23 181.03 986.49 184.18 983.19 186.34 C 976.63 190.37 967.67 189.31 962.47 183.54 C 959.23 180.09 958.07 175.64 958.00 171.00 C 957.99 122.00 958.01 73.00 958.00 24.00 C 958.08 18.78 959.16 13.80 963.13 10.12 C 968.80 4.70 977.90 4.10 984.22 8.76 Z" fill="#333333" />
<path d="M 520.26 62.69 C 531.90 67.72 541.98 76.48 549.14 86.90 C 556.65 97.83 559.85 110.85 559.97 124.00 C 560.06 139.33 559.96 154.67 560.02 170.00 C 559.99 174.52 559.32 178.84 556.42 182.46 C 552.47 187.74 545.27 189.98 538.97 188.13 C 534.18 186.88 530.65 183.44 528.35 179.16 C 509.91 190.74 485.91 191.80 466.22 182.73 C 451.24 175.53 438.90 162.52 432.87 147.01 C 428.62 135.37 427.32 122.72 429.75 110.53 C 434.19 84.80 456.24 62.87 482.00 58.59 C 494.82 56.15 508.22 57.68 520.26 62.69 Z" fill="#333333" />
<path d="M 785.98 59.21 C 800.56 62.26 813.92 71.29 823.01 82.99 C 832.18 94.50 836.90 109.33 836.51 124.00 C 836.50 138.67 836.51 153.33 836.51 168.00 C 836.47 171.04 836.81 174.12 835.93 176.99 C 834.37 183.03 829.04 187.66 822.88 188.52 C 815.53 189.75 808.34 185.97 805.15 179.23 C 790.09 188.35 771.53 191.19 754.47 186.73 C 738.78 183.14 725.39 172.77 716.27 159.72 C 701.98 138.79 701.59 109.53 715.20 88.17 C 724.17 74.22 738.53 63.09 754.86 59.42 C 765.00 56.90 775.81 56.77 785.98 59.21 Z" fill="#333333" />
<path d="M 890.99 57.82 C 909.26 55.88 928.08 61.88 941.52 74.48 C 943.37 76.30 945.24 78.10 947.04 79.97 C 952.23 85.10 952.85 93.92 949.04 100.02 C 945.27 106.51 936.35 109.15 929.50 106.41 C 924.73 104.65 921.54 99.71 917.32 96.70 C 910.40 91.25 901.62 89.52 892.99 90.57 C 886.55 91.16 880.44 94.07 876.02 98.80 C 892.01 104.25 908.09 109.41 924.12 114.71 C 929.41 116.40 934.50 118.79 939.17 121.80 C 949.59 129.49 954.32 143.52 950.98 156.00 C 949.55 162.22 946.06 167.19 941.87 171.86 C 931.33 182.24 917.52 187.19 903.00 188.58 C 892.51 189.46 881.93 187.68 872.19 183.76 C 862.36 179.62 854.04 172.98 847.10 164.95 C 843.53 160.21 842.96 153.63 845.28 148.20 C 848.46 141.00 856.96 137.16 864.50 139.38 C 869.55 140.65 873.11 145.67 877.15 148.83 C 883.78 154.45 892.42 156.63 901.00 155.85 C 907.90 155.40 914.58 152.58 919.17 147.30 C 907.05 143.37 894.95 139.38 882.86 135.36 C 874.52 132.44 866.61 130.71 858.88 126.16 C 846.67 119.27 840.65 103.49 844.44 90.12 C 846.39 81.94 851.90 75.48 858.27 70.27 C 867.84 63.00 879.15 59.25 890.99 57.82 Z" fill="#333333" />
<path d="M 488.52 90.74 C 492.30 90.12 496.09 90.15 499.87 90.75 C 513.03 92.99 523.93 103.96 526.55 116.98 C 527.41 122.58 527.27 128.78 525.17 134.10 C 522.00 142.69 515.01 150.01 506.55 153.54 C 501.15 155.96 494.79 156.42 488.98 155.59 C 473.46 153.21 461.00 138.81 461.46 123.00 C 461.17 107.44 473.25 93.32 488.52 90.74 Z" fill="#ffffff" />
<path d="M 626.53 90.80 C 638.34 88.59 650.12 93.08 657.74 102.26 C 666.14 111.94 667.96 126.51 661.83 137.82 C 655.87 149.90 642.44 157.41 629.00 155.79 C 613.02 154.28 599.99 140.03 599.75 124.00 C 599.08 108.26 611.13 93.61 626.53 90.80 Z" fill="#ffffff" />
<path d="M 296.12 91.18 C 303.45 89.50 311.60 90.10 318.31 93.65 C 329.53 99.09 337.44 111.42 336.78 124.00 C 336.69 141.57 320.54 156.79 303.00 155.97 C 286.11 155.80 271.25 140.90 271.22 124.00 C 270.44 108.83 281.53 94.78 296.12 91.18 Z" fill="#ffffff" />
<path d="M 761.49 91.60 C 769.24 89.40 778.12 89.86 785.31 93.67 C 796.88 99.30 804.69 112.06 803.72 125.00 C 802.97 142.19 787.25 156.76 770.00 155.97 C 752.75 155.83 737.58 140.29 738.20 123.00 C 737.80 108.81 748.08 95.68 761.49 91.60 Z" fill="#ffffff" />
<path d="M 711.52 212.51 C 715.77 212.50 720.01 212.43 724.26 212.56 C 724.24 219.10 724.27 225.64 724.24 232.18 C 726.93 230.99 729.07 229.44 731.98 228.96 C 737.97 227.66 744.32 228.98 749.02 232.98 C 758.89 241.42 758.65 259.34 748.17 267.19 C 741.18 272.47 731.51 272.11 724.42 267.17 C 724.26 268.04 724.11 268.91 723.96 269.79 C 719.87 269.74 715.80 269.68 711.71 269.86 C 711.27 266.20 711.58 262.70 711.50 259.00 C 711.51 243.50 711.47 228.01 711.52 212.51 Z" fill="#00c8b0" />
<path d="M 613.93 216.18 C 618.27 216.30 622.60 216.26 626.94 216.21 C 627.08 230.13 626.96 244.07 627.00 258.00 C 635.74 258.00 644.48 258.01 653.22 257.99 C 653.22 261.95 653.43 265.86 653.07 269.82 C 640.04 269.71 626.96 269.71 613.93 269.81 C 613.76 267.88 613.70 265.94 613.72 264.00 C 613.90 248.08 613.49 232.09 613.93 216.18 Z" fill="#00c8b0" />
<path d="M 334.00 222.99 C 412.33 223.01 490.67 223.00 569.00 222.99 C 573.82 223.11 578.32 222.18 582.05 225.95 C 586.10 229.86 584.79 234.93 585.00 240.00 C 584.72 245.25 586.27 251.00 582.07 255.05 C 578.55 258.58 574.57 257.98 570.00 258.01 C 492.33 257.98 414.67 258.01 337.00 258.00 C 334.00 257.97 330.98 258.13 327.99 257.91 C 323.42 257.57 319.39 253.60 319.11 249.01 C 318.87 246.03 319.03 242.99 319.00 240.00 C 319.21 234.93 317.91 229.86 321.95 225.95 C 325.48 222.41 329.43 223.02 334.00 222.99 Z" fill="#00c8b0" />
<path d="M 829.00 223.99 C 907.33 224.01 985.67 224.00 1064.00 223.99 C 1068.82 224.11 1073.31 223.18 1077.05 226.95 C 1081.10 230.86 1079.79 235.93 1080.00 241.00 C 1079.72 246.25 1081.27 252.00 1077.07 256.05 C 1073.55 259.58 1069.57 258.98 1065.00 259.01 C 987.33 258.98 909.67 259.01 832.00 259.00 C 829.00 258.97 825.98 259.13 822.99 258.91 C 818.42 258.57 814.39 254.60 814.11 250.01 C 813.87 247.03 814.03 243.99 814.00 241.00 C 814.21 235.93 812.91 230.86 816.95 226.95 C 820.48 223.41 824.43 224.02 829.00 223.99 Z" fill="#00c8b0" />
<path d="M 689.25 232.17 C 689.44 231.35 689.62 230.54 689.81 229.73 C 694.02 229.76 698.23 229.75 702.44 229.74 C 702.59 239.49 702.46 249.25 702.50 259.00 C 702.42 262.71 702.74 266.22 702.28 269.87 C 698.10 269.57 693.90 269.97 689.74 269.63 L 689.20 267.42 C 684.85 270.10 680.14 271.52 674.99 270.87 C 667.38 270.10 660.94 264.41 658.76 257.15 C 656.37 248.88 657.84 239.37 664.43 233.41 C 671.27 227.12 681.71 227.00 689.25 232.17 Z" fill="#00c8b0" />
<path d="M 776.99 228.50 C 781.56 228.37 786.49 229.10 790.38 231.65 C 793.40 233.59 795.60 236.62 796.32 240.16 C 792.47 240.93 788.63 241.70 784.80 242.50 C 783.53 240.46 782.55 238.60 780.00 238.04 C 777.56 237.26 773.63 237.95 773.37 241.06 C 773.76 241.96 774.33 242.59 775.08 242.93 C 780.49 244.81 788.04 244.63 792.68 248.27 C 798.48 252.51 798.22 262.38 792.80 266.81 C 789.04 269.95 783.77 270.92 779.00 271.02 C 774.02 271.02 768.86 270.19 764.68 267.30 C 761.92 265.38 760.29 262.41 759.81 259.11 C 763.92 258.32 768.02 257.46 772.13 256.64 C 773.84 261.41 779.94 262.68 783.82 259.83 C 785.12 258.13 784.42 257.13 782.82 256.17 C 777.05 253.95 769.39 254.63 764.47 250.51 C 759.32 246.30 759.73 237.77 764.30 233.30 C 767.66 229.92 772.36 228.73 776.99 228.50 Z" fill="#00c8b0" />
<path d="M 676.20 240.27 C 683.28 237.31 690.44 243.72 689.45 251.02 C 688.79 257.47 682.01 261.91 675.93 259.09 C 668.45 255.66 668.61 243.49 676.20 240.27 Z" fill="#ffffff" />
<path d="M 730.33 240.38 C 733.47 238.94 736.85 239.37 739.62 241.38 C 745.31 245.63 744.71 256.11 737.99 259.06 C 734.09 260.98 729.36 259.65 726.64 256.38 C 722.63 251.30 724.11 242.91 730.33 240.38 Z" fill="#ffffff" /></svg>